[
    {
        "start": {
            "timestamp": {
                "n": 0,
                "pts": 0,
                "pts_time": 0
            },
            "event": {
                "type": "start_marker",
                "trial_type": "animation",
                "trial_index": "trial-1-1"
            }
        },
        "end": {
            "timestamp": {
                "n": 69,
                "pts": 69,
                "pts_time": 2.3
            },
            "event": {
                "type": "end_marker",
                "trial_type": "animation",
                "trial_index": "0",
                "time_elapsed": "3004"
            }
        }
    },
    {
        "start": {
            "timestamp": {
                "n": 70,
                "pts": 70,
                "pts_time": 2.33333
            },
            "event": {
                "type": "start_marker",
                "trial_type": "disks",
                "trial_index": "disk-condition-11-1"
            }
        },
        "end": {
            "timestamp": {
                "n": 181,
                "pts": 181,
                "pts_time": 6.03333
            },
            "event": {
                "type": "end_marker",
                "trial_type": "disks",
                "trial_index": "1",
                "time_elapsed": "11071"
            }
        }
    },
    {
        "start": {
            "timestamp": {
                "n": 182,
                "pts": 182,
                "pts_time": 6.06667
            },
            "event": {
                "type": "start_marker",
                "trial_type": "animation",
                "trial_index": "trial-1-3"
            }
        },
        "end": {
            "timestamp": {
                "n": 222,
                "pts": 222,
                "pts_time": 7.4
            },
            "event": {
                "type": "end_marker",
                "trial_type": "animation",
                "trial_index": "2",
                "time_elapsed": "14074"
            }
        }
    },
    {
        "start": {
            "timestamp": {
                "n": 224,
                "pts": 224,
                "pts_time": 7.46667
            },
            "event": {
                "type": "start_marker",
                "trial_type": "disks",
                "trial_index": "disk-condition-11-1"
            }
        },
        "end": {
            "timestamp": {
                "n": 336,
                "pts": 336,
                "pts_time": 11.2
            },
            "event": {
                "type": "end_marker",
                "trial_type": "disks",
                "trial_index": "3",
                "time_elapsed": "22144"
            }
        }
    },
    {
        "start": {
            "timestamp": {
                "n": 337,
                "pts": 337,
                "pts_time": 11.2333
            },
            "event": {
                "type": "start_marker",
                "trial_type": "animation",
                "trial_index": "trial-1-5"
            }
        },
        "end": {
            "timestamp": {
                "n": 381,
                "pts": 381,
                "pts_time": 12.7
            },
            "event": {
                "type": "end_marker",
                "trial_type": "animation",
                "trial_index": "4",
                "time_elapsed": "25147"
            }
        }
    },
    {
        "start": {
            "timestamp": {
                "n": 382,
                "pts": 382,
                "pts_time": 12.7333
            },
            "event": {
                "type": "start_marker",
                "trial_type": "disks",
                "trial_index": "disk-condition-11-1"
            }
        },
        "end": {
            "timestamp": {
                "n": 477,
                "pts": 477,
                "pts_time": 15.9
            },
            "event": {
                "type": "end_marker",
                "trial_type": "disks",
                "trial_index": "5",
                "time_elapsed": "33227"
            }
        }
    },
    {
        "start": {
            "timestamp": {
                "n": 479,
                "pts": 479,
                "pts_time": 15.9667
            },
            "event": {
                "type": "start_marker",
                "trial_type": "animation",
                "trial_index": "trial-1-7"
            }
        },
        "end": {
            "timestamp": {
                "n": 526,
                "pts": 526,
                "pts_time": 17.5333
            },
            "event": {
                "type": "end_marker",
                "trial_type": "animation",
                "trial_index": "6",
                "time_elapsed": "36231"
            }
        }
    },
    {
        "start": {
            "timestamp": {
                "n": 527,
                "pts": 527,
                "pts_time": 17.5667
            },
            "event": {
                "type": "start_marker",
                "trial_type": "disks",
                "trial_index": "disk-condition-11-1"
            }
        },
        "end": {
            "timestamp": {
                "n": 706,
                "pts": 706,
                "pts_time": 23.5333
            },
            "event": {
                "type": "end_marker",
                "trial_type": "disks",
                "trial_index": "7",
                "time_elapsed": "44311"
            }
        }
    },
    {
        "start": {
            "timestamp": {
                "n": 707,
                "pts": 707,
                "pts_time": 23.5667
            },
            "event": {
                "type": "start_marker",
                "trial_type": "animation",
                "trial_index": "trial-1-9"
            }
        },
        "end": {
            "timestamp": {
                "n": 752,
                "pts": 752,
                "pts_time": 25.0667
            },
            "event": {
                "type": "end_marker",
                "trial_type": "animation",
                "trial_index": "8",
                "time_elapsed": "47314"
            }
        }
    },
    {
        "start": {
            "timestamp": {
                "n": 753,
                "pts": 753,
                "pts_time": 25.1
            },
            "event": {
                "type": "start_marker",
                "trial_type": "disks",
                "trial_index": "disk-condition-11-1"
            }
        },
        "end": {
            "timestamp": {
                "n": 872,
                "pts": 872,
                "pts_time": 29.0667
            },
            "event": {
                "type": "end_marker",
                "trial_type": "disks",
                "trial_index": "9",
                "time_elapsed": "55394"
            }
        }
    },
    {
        "start": {
            "timestamp": {
                "n": 874,
                "pts": 874,
                "pts_time": 29.1333
            },
            "event": {
                "type": "start_marker",
                "trial_type": "animation",
                "trial_index": "trial-1-11"
            }
        },
        "end": {
            "timestamp": {
                "n": 920,
                "pts": 920,
                "pts_time": 30.6667
            },
            "event": {
                "type": "end_marker",
                "trial_type": "animation",
                "trial_index": "10",
                "time_elapsed": "58397"
            }
        }
    },
    {
        "start": {
            "timestamp": {
                "n": 922,
                "pts": 922,
                "pts_time": 30.7333
            },
            "event": {
                "type": "start_marker",
                "trial_type": "disks",
                "trial_index": "disk-condition-11-1"
            }
        },
        "end": {
            "timestamp": {
                "n": 1036,
                "pts": 1036,
                "pts_time": 34.5333
            },
            "event": {
                "type": "end_marker",
                "trial_type": "disks",
                "trial_index": "11",
                "time_elapsed": "66477"
            }
        }
    },
    {
        "start": {
            "timestamp": {
                "n": 1038,
                "pts": 1038,
                "pts_time": 34.6
            },
            "event": {
                "type": "start_marker",
                "trial_type": "animation",
                "trial_index": "trial-1-13"
            }
        },
        "end": {
            "timestamp": {
                "n": 1082,
                "pts": 1082,
                "pts_time": 36.0667
            },
            "event": {
                "type": "end_marker",
                "trial_type": "animation",
                "trial_index": "12",
                "time_elapsed": "69484"
            }
        }
    },
    {
        "start": {
            "timestamp": {
                "n": 1084,
                "pts": 1084,
                "pts_time": 36.1333
            },
            "event": {
                "type": "start_marker",
                "trial_type": "disks",
                "trial_index": "disk-condition-11-1"
            }
        },
        "end": {
            "timestamp": {
                "n": 1190,
                "pts": 1190,
                "pts_time": 39.6667
            },
            "event": {
                "type": "end_marker",
                "trial_type": "disks",
                "trial_index": "13",
                "time_elapsed": "77565"
            }
        }
    }
]